<svg width="139" height="161" viewBox="0 0 139 161" fill="none" xmlns="http://www.w3.org/2000/svg">
<path d="M136.771 34.417C133.426 18.968 114.69 25.155 114.69 25.155C114.148 25.322 113.535 25.539 112.835 25.82C100.269 30.914 87.87 40.473 74.927 55.05C67.625 63.284 60.966 72.017 55.035 81.197C45.583 95.77 37.929 111.426 32.2 127.831C29.278 136.186 23.723 143.464 16.123 148.03C9.776 151.849 4.28999 152.676 1.94299 152.834C1.17199 152.911 0.738007 152.893 0.738007 152.893C1.33001 149.873 1.982 146.878 2.696 143.895C11.372 107.301 28.494 73.176 52.684 44.35C54.13 42.621 55.607 40.904 57.116 39.215C72.545 21.846 87.847 10.229 103.879 3.73001C118.877 -2.34799 127.761 2.39301 131.976 6.17901C131.976 6.17901 131.992 6.19301 131.993 6.20801C132.197 6.37501 132.372 6.54301 132.546 6.71201C133.91 8.03201 135.263 9.68 136.358 11.717C139.063 16.7 140.298 23.996 136.771 34.417Z" fill="url(#paint0_linear_2_29)"/>
<path d="M136.771 34.417C136.759 34.463 136.733 34.524 136.721 34.569C136.505 35.194 136.275 35.82 136.032 36.476C135.259 38.478 134.456 40.482 133.621 42.457C127.607 56.641 119.759 70.101 110.406 82.37C103.1 80.995 96.542 81.112 91.096 81.847C81.211 83.196 74.973 86.605 74.54 86.841C88.813 73.273 100.574 56.933 108.992 39.11C110.275 36.421 111.482 33.691 112.597 30.937C112.999 29.943 113.386 28.949 113.773 27.956C114.197 26.841 114.499 25.912 114.691 25.155C114.691 25.155 119.547 23.546 124.753 24.019C129.777 24.459 135.13 26.833 136.771 34.417Z" fill="#DD496C"/>
<path d="M107.459 112.602C108.714 110.914 108.984 109.957 108.998 109.449C109.008 108.389 106.739 105.931 103.456 105.191C103.35 105.168 103.229 105.145 103.109 105.123C99.861 104.471 96.109 104.849 92.215 105.593C89.987 106.012 87.723 106.553 85.472 107.079C80.236 108.323 74.807 105.909 72.235 101.172C71.614 100.046 71.214 98.862 70.991 97.652C70.276 93.756 71.534 89.681 74.511 86.858C74.511 86.858 74.526 86.857 74.54 86.841C75.016 86.573 82.902 82.287 95.087 81.469C95.502 81.429 95.934 81.417 96.365 81.391C98.462 81.278 100.671 81.293 102.993 81.434C102.993 81.434 107.032 87.231 109.412 94.203C111.574 100.549 112.362 107.857 107.459 112.602Z" fill="url(#paint1_linear_2_29)"/>
<path d="M132.818 109.787C132.667 120.764 125.706 128.723 119.653 134.419C110.624 142.953 100.563 150.475 89.819 156.83C68.973 164.637 58.446 158.4 53.771 153.433C51.728 151.245 50.789 149.303 50.615 148.91C50.597 148.866 50.581 148.838 50.581 148.838C70.096 142.201 88.317 131.227 103.302 117.093C105.306 115.21 106.619 113.742 107.46 112.602C117.731 102.65 102.993 81.435 102.993 81.435L103.008 81.434C104.011 81.492 105.032 81.594 106.07 81.725C107.482 81.878 108.927 82.088 110.407 82.371C113.9 83.367 117.356 84.991 120.457 87.145C127.624 92.154 132.969 100.035 132.818 109.787Z" fill="url(#paint2_linear_2_29)"/>
<path opacity="0.16" d="M136.771 34.417C136.543 35.087 136.302 35.774 136.031 36.476C135.258 38.478 134.455 40.482 133.62 42.457C126.695 36.075 115.706 37.432 108.99 39.11C110.736 35.452 112.33 31.729 113.771 27.956C114.195 26.841 114.497 25.912 114.689 25.155C114.689 25.155 133.426 18.969 136.771 34.417Z" fill="url(#paint3_linear_2_29)"/>
<path opacity="0.16" d="M136.771 34.417C136.759 34.463 136.733 34.524 136.721 34.569C129.531 29.964 120.288 29.841 112.595 30.937C112.997 29.943 113.384 28.949 113.771 27.956C114.195 26.841 114.497 25.912 114.689 25.155C114.689 25.155 133.426 18.969 136.771 34.417Z" fill="url(#paint4_linear_2_29)"/>
<path opacity="0.16" d="M124.752 24.019C121.533 34.601 111.979 60.714 91.095 81.848C81.21 83.197 74.972 86.606 74.539 86.842C88.812 73.274 100.573 56.934 108.991 39.111C110.274 36.422 111.481 33.692 112.596 30.938C112.998 29.944 113.385 28.95 113.772 27.957C114.196 26.842 114.498 25.913 114.69 25.156C114.69 25.156 119.545 23.546 124.752 24.019Z" fill="url(#paint5_linear_2_29)"/>
<path opacity="0.16" d="M107.459 112.602C108.714 110.914 108.984 109.957 108.998 109.449C109.008 108.389 106.739 105.931 103.456 105.191C103.35 105.168 103.229 105.145 103.109 105.123C107.071 94.496 99.796 85.062 96.364 81.392C98.461 81.279 100.67 81.294 102.992 81.435C102.992 81.435 117.73 102.65 107.459 112.602Z" fill="url(#paint6_linear_2_29)"/>
<path opacity="0.16" d="M107.459 112.602C108.714 110.914 108.984 109.957 108.998 109.449C109.008 108.389 106.739 105.931 103.456 105.191C103.35 105.168 103.229 105.145 103.109 105.123C99.861 104.471 96.109 104.849 92.215 105.593C100.513 96.82 96.333 84.557 95.086 81.469C95.501 81.429 95.933 81.417 96.364 81.391C98.461 81.278 100.67 81.293 102.992 81.434C102.992 81.436 117.73 102.65 107.459 112.602Z" fill="url(#paint7_linear_2_29)"/>
<path opacity="0.75" d="M118.511 118.15C107.173 134.33 78.486 156.223 66.571 156.577C61.73 156.708 57.313 155.247 53.771 153.433C51.473 150.977 50.581 148.838 50.581 148.838C70.096 142.201 88.317 131.227 103.302 117.093C105.306 115.21 106.619 113.742 107.46 112.602C117.731 102.65 102.993 81.435 102.993 81.435L103.008 81.434C105.375 81.588 107.84 81.885 110.406 82.37C113.899 83.366 117.355 84.99 120.456 87.144C122.945 92.738 127.103 105.868 118.511 118.15Z" fill="url(#paint8_linear_2_29)"/>
<path opacity="0.75" d="M115.051 113.527C106.488 128.971 78.621 149.128 65.477 150.87C58.313 151.814 53.496 150.392 50.615 148.911C50.597 148.867 50.581 148.839 50.581 148.839C70.096 142.202 88.317 131.228 103.302 117.094C105.306 115.211 106.619 113.743 107.46 112.603C117.731 102.651 102.993 81.436 102.993 81.436L103.008 81.435C104.011 81.493 105.032 81.595 106.07 81.726C110.51 86.543 122.055 100.909 115.051 113.527Z" fill="url(#paint9_linear_2_29)"/>
<path opacity="0.24" d="M136.357 11.717C128.597 7.55 109.781 2.654 82.673 29.137C46.41 64.549 23.822 103.976 16.725 128.283C13.37 139.813 7.34699 147.73 1.94299 152.835C1.17199 152.912 0.738007 152.894 0.738007 152.894C9.05601 110.682 28.549 71.384 57.116 39.217C72.545 21.848 87.847 10.231 103.879 3.73201C119.576 -2.62699 128.581 2.86701 132.546 6.71401C133.908 8.03201 135.262 9.68 136.357 11.717Z" fill="url(#paint10_linear_2_29)"/>
<path opacity="0.1" d="M132.74 7.46202C124.98 3.29502 106.164 -1.60097 79.056 24.882C42.793 60.294 20.205 99.721 13.108 124.028C10.64 132.49 6.73998 139.009 2.69598 143.897C11.894 105.108 30.587 69.082 57.116 39.217C72.545 21.848 87.847 10.231 103.879 3.73203C118.877 -2.34597 127.761 2.39502 131.976 6.18102C131.976 6.18102 131.992 6.19502 131.993 6.21002C132.255 6.61102 132.504 7.02802 132.74 7.46202Z" fill="url(#paint11_linear_2_29)"/>
<path opacity="0.16" d="M107.459 112.602C108.714 110.914 108.984 109.957 108.998 109.449C109.008 108.389 106.739 105.931 103.456 105.191C103.35 105.168 103.229 105.145 103.109 105.123C99.861 104.471 96.109 104.849 92.215 105.593C89.987 106.012 87.723 106.553 85.472 107.079C80.236 108.323 74.807 105.909 72.235 101.172C71.614 100.046 71.214 98.862 70.991 97.652C80.375 94.931 96.452 91.384 109.412 94.204C111.574 100.549 112.362 107.857 107.459 112.602Z" fill="url(#paint12_linear_2_29)"/>
<defs>
<linearGradient id="paint0_linear_2_29" x1="-3.66938" y1="80.6693" x2="141.999" y2="71.7812" gradientUnits="userSpaceOnUse">
<stop stop-color="#DE7B91"/>
<stop offset="1" stop-color="#F1023B"/>
</linearGradient>
<linearGradient id="paint1_linear_2_29" x1="110.858" y1="97.6296" x2="62.4108" y2="92.3779" gradientUnits="userSpaceOnUse">
<stop stop-color="#F1023B"/>
<stop offset="1" stop-color="#DE7B91"/>
</linearGradient>
<linearGradient id="paint2_linear_2_29" x1="113.679" y1="83.4582" x2="76.5128" y2="165.485" gradientUnits="userSpaceOnUse">
<stop stop-color="#F1023B"/>
<stop offset="1" stop-color="#DE7B91"/>
</linearGradient>
<linearGradient id="paint3_linear_2_29" x1="136.189" y1="33.9943" x2="104.21" y2="30.5277" gradientUnits="userSpaceOnUse">
<stop/>
<stop offset="1" stop-opacity="0"/>
</linearGradient>
<linearGradient id="paint4_linear_2_29" x1="136.692" y1="29.9365" x2="107.9" y2="26.8155" gradientUnits="userSpaceOnUse">
<stop/>
<stop offset="1" stop-opacity="0"/>
</linearGradient>
<linearGradient id="paint5_linear_2_29" x1="120.107" y1="57.6485" x2="69.2121" y2="52.1314" gradientUnits="userSpaceOnUse">
<stop/>
<stop offset="1" stop-opacity="0"/>
</linearGradient>
<linearGradient id="paint6_linear_2_29" x1="111.402" y1="97.6885" x2="91.233" y2="95.5022" gradientUnits="userSpaceOnUse">
<stop/>
<stop offset="1" stop-opacity="0"/>
</linearGradient>
<linearGradient id="paint7_linear_2_29" x1="111.367" y1="97.6848" x2="89.4091" y2="95.3045" gradientUnits="userSpaceOnUse">
<stop/>
<stop offset="1" stop-opacity="0"/>
</linearGradient>
<linearGradient id="paint8_linear_2_29" x1="44.9082" y1="147.098" x2="155.583" y2="74.8775" gradientUnits="userSpaceOnUse">
<stop stop-color="#DE7B91"/>
<stop offset="1" stop-color="white" stop-opacity="0"/>
</linearGradient>
<linearGradient id="paint9_linear_2_29" x1="43.8081" y1="144.55" x2="144.351" y2="78.9406" gradientUnits="userSpaceOnUse">
<stop stop-color="#DFB5BF"/>
<stop offset="1" stop-color="white" stop-opacity="0"/>
</linearGradient>
<linearGradient id="paint10_linear_2_29" x1="3.87767" y1="145.901" x2="109.853" y2="7.87866" gradientUnits="userSpaceOnUse">
<stop stop-color="white"/>
<stop offset="1" stop-color="white" stop-opacity="0"/>
</linearGradient>
<linearGradient id="paint11_linear_2_29" x1="6.5914" y1="137.883" x2="108.072" y2="5.7137" gradientUnits="userSpaceOnUse">
<stop stop-color="white"/>
<stop offset="1" stop-color="white" stop-opacity="0"/>
</linearGradient>
<linearGradient id="paint12_linear_2_29" x1="110.235" y1="103.481" x2="62.3732" y2="98.293" gradientUnits="userSpaceOnUse">
<stop/>
<stop offset="1" stop-opacity="0"/>
</linearGradient>
</defs>
</svg>
