<svg fill="none" height="1000" viewBox="0 0 1000 1000" width="1000" xmlns="http://www.w3.org/2000/svg" xmlns:xlink="http://www.w3.org/1999/xlink"><filter id="a" color-interpolation-filters="sRGB" filterUnits="userSpaceOnUse" height="985.514" width="777.049" x="111" y="11"><feFlood flood-opacity="0" result="BackgroundImageFix"/><feColorMatrix in="SourceAlpha" result="hardAlpha" type="matrix" values="0 0 0 0 0 0 0 0 0 0 0 0 0 0 0 0 0 0 127 0"/><feOffset dy="4"/><feGaussianBlur stdDeviation="2"/><feComposite in2="hardAlpha" operator="out"/><feColorMatrix type="matrix" values="0 0 0 0 0 0 0 0 0 0 0 0 0 0 0 0 0 0 0.25 0"/><feBlend in2="BackgroundImageFix" mode="normal" result="effect1_dropShadow_4_12"/><feBlend in="SourceGraphic" in2="effect1_dropShadow_4_12" mode="normal" result="shape"/></filter><clipPath id="b"><path d="m0 0h1000v1000h-1000z"/></clipPath><g clip-path="url(#b)"><g filter="url(#a)"><path d="m643.342 13.7859c-13.764 11.5294-35.529 81.2942-35.529 113.6471 0 8.353.353 10.471 2.118 12 5.529 5.059 10.823.471 10.823-9.176 0-3.177.824-10.942 1.765-17.059 5.412-33.5297 16.588-67.8827 28.118-86.9415 4.705-7.7647 5.176-10.5882 2.117-13.4117-2.941-2.7059-5.294-2.4706-9.412.9411z" fill="#000"/><path d="m583.783 54.2565v-.2131l.154-.1476 2.935-2.817c.85-.8798 1.563-1.572 2.208-2.058.648-.4888 1.269-.8011 1.935-.8649.672-.0645 1.316.1308 1.994.507.671.3716 1.413.9411 2.296 1.6761l2.818 2.2314.19.1501v.2419 39.8824c0 10.9432-.088 21.2412-.25 29.0252-.081 3.891-.181 7.158-.297 9.563-.058 1.203-.12 2.194-.187 2.943-.063.712-.135 1.262-.228 1.553-.833 3.056-3.397 4.619-6.017 4.651s-5.32-1.464-6.459-4.499c-.057-.149-.1-.359-.136-.587-.037-.242-.074-.545-.109-.903-.07-.717-.137-1.676-.201-2.844-.127-2.338-.241-5.535-.337-9.36-.191-7.653-.309-17.833-.309-28.7187z" fill="#000" stroke="#000"/><path d="m585.254 54.4918c0-5 4.029-5.3611 5.673-5.5 4.931.4167 6.327 2.5 5.827 4.5" stroke="#000" stroke-width="4"/><g fill="#000"><path d="m492.048 56.2565c-4.353 4.2353-2.588 6.9412 12.471 18.3529 8 6 17.294 13.8824 20.706 17.4118 9.882 9.9998 20.47 24.8238 27.176 37.9998 6.941 13.294 8.941 16.118 11.883 16.118 2.941 0 5.882-3.882 5.882-7.765 0-6.117-10.941-26.47-22.118-40.941-7.764-10.1177-20.706-22.8236-31.529-30.9412-16.471-12.4706-20.588-14.2353-24.471-10.2353z"/><path d="m583.107 150.845c-58.588 3.294-124.941 21.294-174.118 47.294-15.882 8.47-40.235 23.176-53.529 32.47-27.412 19.059-73.059 64-103.412 101.883-14.823 18.353-29.412 40.941-40.47 62.706-40.236 78.823-75.177 182.235-88.353 261.059-7.647 46-8.824 72.588-8 193.411.47 85.765 1.764 124.588 4.235 134.706.824 3.294 1.294 3.53 6 3.53 4.471 0 5.176-.353 5.882-3.059.471-1.647.353-8-.117-14.118-3.059-33.529-4.236-164.118-2.236-231.176 1.883-62.236 7.53-98 25.295-160 19.411-67.647 40.117-121.412 68.352-177.059 21.648-42.706 45.412-73.294 93.53-120.471 26-25.412 35.647-33.529 56.353-47.176 53.765-35.294 104.823-55.53 166.353-65.765 27.647-4.588 40.823-5.294 100.353-5.294 61.411 0 63.529.235 85.058 7.647 31.648 10.941 54.236 25.294 78.824 50 25.647 25.765 35.882 41.294 45.176 69.412 13.177 39.647 17.059 83.176 17.53 197.176.235 59.883 0 73.412-1.294 74.941-4.471 5.295-82.588 37.412-123.177 50.589-19.294 6.235-54.353 14.823-87.647 21.411-18.117 3.647-21.176 5.059-21.176 9.765 0 4.118 1.882 6.118 5.882 6.118 7.647 0 71.647-14.118 95.412-21.059 6.941-2 13.647-3.647 14.823-3.647 2.589 0 3.53 1.882 13.883 27.647 3.647 9.059 14.588 36 24.353 60 46.235 113.882 68 180.941 80.47 247.647 2.471 13.294 4.941 24.823 5.53 25.529 1.647 2.236 10.117 2 11.059-.353.823-2.235-2.706-23.529-8.589-50.705-5.059-23.765-15.294-61.648-22.706-83.883-15.529-46.588-44.47-122.235-69.882-182.353-10.235-24.353-17.294-44.117-17.294-48.353 0-1.411 2.471-2.941 8.588-5.294 49.412-18.588 99.412-40.47 103.53-45.294 1.882-2.353 2-7.294 2-67.412 0-121.176-5.059-176.588-19.647-218.941-9.883-28.588-23.765-49.294-50.118-75.294-23.53-23.176-52.824-40.706-86.118-51.647-20.353-6.706-22.235-6.824-74.706-7.176-26.823-.236-56.47.117-65.882.588z"/><path d="m573.107 301.198c-1.882 1.294-5.882 4.823-8.823 7.882-6.118 6.353-10.706 8.941-20.589 11.765-8.235 2.353-11.176 4.588-11.176 8.353 0 3.647 3.059 6.353 7.059 6.353 4.706 0 17.294-4.118 23.529-7.765l5.294-3.059 5.883 3.294c7.529 4 13.294 3.294 18.941-2.353 6.823-6.823 6.823-15.176-.118-21.882-5.176-5.059-14.353-6.235-20-2.588z"/><path d="m738.048 312.609c-5.411 1.412-18 9.177-29.059 18.118-2.941 2.353-6.705 4.941-8.47 5.647-6.941 3.059-4.471 12.118 3.294 12.118 3.059 0 6.353-1.647 13.647-6.706 7.882-5.529 9.765-6.353 11.412-5.294 10.117 7.412 14.235 8.47 21.529 5.176 3.765-1.647 5.765-3.529 7.177-6.47 6.47-13.647-4.471-26.353-19.53-22.589z"/><path d="m578.166 378.845c-2.118.235-6.706 3.647-12.706 9.059-8.235 7.647-10.588 8.941-19.059 11.764-10.941 3.647-13.882 5.647-13.882 9.53 0 3.764 3.059 6.353 7.647 6.353 5.059 0 17.882-4 22.353-7.059 4.47-2.941 6-2.941 11.765 0 2.588 1.294 6.117 2.353 7.882 2.353 5.412 0 11.529-3.647 14-8.471 6.47-12.706-3.294-25.294-18-23.529z"/><path d="m734.284 382.845c-6.118 2.706-33.295 20.117-37.883 24.353-3.294 2.941-3.412 4.117-.353 7.176 3.177 3.177 8.118 2.941 13.059-.353 2.235-1.529 7.294-4.941 11.294-7.765l7.412-5.058 3.059 3.764c5.882 6.942 12.588 8.706 20 5.177 11.176-5.294 11.529-22.471.588-28.118-4.824-2.47-10.235-2.117-17.176.824z"/></g></g></g></svg>